{
    "asset" : {
        "generator" : "Khronos glTF Blender I/O v1.8.19",
        "version" : "2.0"
    },
    "scene" : 0,
    "scenes" : [
        {
            "name" : "Scene",
            "nodes" : [
                5
            ]
        }
    ],
    "nodes" : [
        {
            "mesh" : 0,
            "name" : "Glass"
        },
        {
            "mesh" : 1,
            "name" : "left_front_wheel",
            "translation" : [
                0.7163370251655579,
                0.3112524151802063,
                1.3360675573349
            ]
        },
        {
            "mesh" : 2,
            "name" : "left_rear_wheel",
            "translation" : [
                0.7032262682914734,
                0.3502141833305359,
                -1.1005102396011353
            ]
        },
        {
            "mesh" : 3,
            "name" : "rear_right_wheel",
            "translation" : [
                -0.7032262682914734,
                0.35021427273750305,
                -1.1005102396011353
            ]
        },
        {
            "mesh" : 4,
            "name" : "right_front_wheel",
            "translation" : [
                -0.7163370251655579,
                0.31125253438949585,
                1.3360675573349
            ]
        },
        {
            "children" : [
                0,
                1,
                2,
                3,
                4
            ],
            "mesh" : 5,
            "name" : "Body"
        }
    ],
    "materials" : [
        {
            "alphaMode" : "BLEND",
            "name" : "Glass",
            "pbrMetallicRoughness" : {
                "baseColorTexture" : {
                    "index" : 0
                },
                "metallicRoughnessTexture" : {
                    "index" : 1
                }
            }
        },
        {
            "doubleSided" : true,
            "name" : "Wheels",
            "pbrMetallicRoughness" : {
                "baseColorTexture" : {
                    "index" : 2
                },
                "metallicRoughnessTexture" : {
                    "index" : 3
                }
            }
        },
        {
            "doubleSided" : true,
            "name" : "Interior",
            "pbrMetallicRoughness" : {
                "baseColorTexture" : {
                    "index" : 4
                },
                "metallicRoughnessTexture" : {
                    "index" : 5
                }
            }
        },
        {
            "doubleSided" : true,
            "name" : "Body",
            "pbrMetallicRoughness" : {
                "baseColorTexture" : {
                    "index" : 6
                },
                "metallicRoughnessTexture" : {
                    "index" : 7
                }
            }
        }
    ],
    "meshes" : [
        {
            "name" : "Plane.006",
            "primitives" : [
                {
                    "attributes" : {
                        "POSITION" : 0,
                        "NORMAL" : 1,
                        "TEXCOORD_0" : 2
                    },
                    "indices" : 3,
                    "material" : 0
                }
            ]
        },
        {
            "name" : "Circle.001",
            "primitives" : [
                {
                    "attributes" : {
                        "POSITION" : 4,
                        "NORMAL" : 5,
                        "TEXCOORD_0" : 6
                    },
                    "indices" : 7,
                    "material" : 1
                }
            ]
        },
        {
            "name" : "Circle.004",
            "primitives" : [
                {
                    "attributes" : {
                        "POSITION" : 8,
                        "NORMAL" : 9,
                        "TEXCOORD_0" : 10
                    },
                    "indices" : 11,
                    "material" : 1
                }
            ]
        },
        {
            "name" : "Circle.002",
            "primitives" : [
                {
                    "attributes" : {
                        "POSITION" : 12,
                        "NORMAL" : 13,
                        "TEXCOORD_0" : 14
                    },
                    "indices" : 15,
                    "material" : 1
                }
            ]
        },
        {
            "name" : "Circle",
            "primitives" : [
                {
                    "attributes" : {
                        "POSITION" : 16,
                        "NORMAL" : 17,
                        "TEXCOORD_0" : 18
                    },
                    "indices" : 19,
                    "material" : 1
                }
            ]
        },
        {
            "name" : "BodyMesh",
            "primitives" : [
                {
                    "attributes" : {
                        "POSITION" : 20,
                        "NORMAL" : 21,
                        "TEXCOORD_0" : 22
                    },
                    "indices" : 23,
                    "material" : 2
                },
                {
                    "attributes" : {
                        "POSITION" : 24,
                        "NORMAL" : 25,
                        "TEXCOORD_0" : 26
                    },
                    "indices" : 27,
                    "material" : 3
                }
            ]
        }
    ],
    "textures" : [
        {
            "sampler" : 0,
            "source" : 0
        },
        {
            "sampler" : 0,
            "source" : 1
        },
        {
            "sampler" : 0,
            "source" : 2
        },
        {
            "sampler" : 0,
            "source" : 3
        },
        {
            "sampler" : 0,
            "source" : 4
        },
        {
            "sampler" : 0,
            "source" : 5
        },
        {
            "sampler" : 0,
            "source" : 6
        },
        {
            "sampler" : 0,
            "source" : 7
        }
    ],
    "images" : [
        {
            "bufferView" : 4,
            "mimeType" : "image/png",
            "name" : "sportcar.017_Glass_BaseColor.png.001"
        },
        {
            "bufferView" : 5,
            "mimeType" : "image/png",
            "name" : "sportcar.017_Glass_Roughness.png.001"
        },
        {
            "bufferView" : 10,
            "mimeType" : "image/png",
            "name" : "sportcar.017_Wheels_BaseColor.png.001"
        },
        {
            "bufferView" : 11,
            "mimeType" : "image/png",
            "name" : "sportcar.017_Wheels_Roughness.png.001"
        },
        {
            "bufferView" : 28,
            "mimeType" : "image/png",
            "name" : "sportcar.017_Interior_BaseColor.png.001"
        },
        {
            "bufferView" : 29,
            "mimeType" : "image/png",
            "name" : "sportcar.017_Interior_Roughness.png.001"
        },
        {
            "bufferView" : 34,
            "mimeType" : "image/png",
            "name" : "sportcar.017_Body_BaseColor.png.001"
        },
        {
            "bufferView" : 35,
            "mimeType" : "image/png",
            "name" : "sportcar.017_Body_Roughness.png.001"
        }
    ],
    "accessors" : [
        {
            "bufferView" : 0,
            "componentType" : 5126,
            "count" : 260,
            "max" : [
                0.8748535513877869,
                1.2698460817337036,
                1.9968050718307495
            ],
            "min" : [
                -0.8748535513877869,
                0.6310759782791138,
                -1.706344723701477
            ],
            "type" : "VEC3"
        },
        {
            "bufferView" : 1,
            "componentType" : 5126,
            "count" : 260,
            "type" : "VEC3"
        },
        {
            "bufferView" : 2,
            "componentType" : 5126,
            "count" : 260,
            "type" : "VEC2"
        },
        {
            "bufferView" : 3,
            "componentType" : 5123,
            "count" : 636,
            "type" : "SCALAR"
        },
        {
            "bufferView" : 6,
            "componentType" : 5126,
            "count" : 828,
            "max" : [
                0.20300650596618652,
                0.31385424733161926,
                0.31385427713394165
            ],
            "min" : [
                -0.005574643611907959,
                -0.31385427713394165,
                -0.31385424733161926
            ],
            "type" : "VEC3"
        },
        {
            "bufferView" : 7,
            "componentType" : 5126,
            "count" : 828,
            "type" : "VEC3"
        },
        {
            "bufferView" : 8,
            "componentType" : 5126,
            "count" : 828,
            "type" : "VEC2"
        },
        {
            "bufferView" : 9,
            "componentType" : 5123,
            "count" : 1200,
            "type" : "SCALAR"
        },
        {
            "bufferView" : 12,
            "componentType" : 5126,
            "count" : 826,
            "max" : [
                0.24673867225646973,
                0.35241952538490295,
                0.3524196147918701
            ],
            "min" : [
                -0.00547260046005249,
                -0.3524196445941925,
                -0.35241958498954773
            ],
            "type" : "VEC3"
        },
        {
            "bufferView" : 13,
            "componentType" : 5126,
            "count" : 826,
            "type" : "VEC3"
        },
        {
            "bufferView" : 14,
            "componentType" : 5126,
            "count" : 826,
            "type" : "VEC2"
        },
        {
            "bufferView" : 15,
            "componentType" : 5123,
            "count" : 1200,
            "type" : "SCALAR"
        },
        {
            "bufferView" : 16,
            "componentType" : 5126,
            "count" : 817,
            "max" : [
                0.00547260046005249,
                0.35241952538490295,
                0.3524196147918701
            ],
            "min" : [
                -0.24673867225646973,
                -0.3524196445941925,
                -0.35241958498954773
            ],
            "type" : "VEC3"
        },
        {
            "bufferView" : 17,
            "componentType" : 5126,
            "count" : 817,
            "type" : "VEC3"
        },
        {
            "bufferView" : 18,
            "componentType" : 5126,
            "count" : 817,
            "type" : "VEC2"
        },
        {
            "bufferView" : 19,
            "componentType" : 5123,
            "count" : 1200,
            "type" : "SCALAR"
        },
        {
            "bufferView" : 20,
            "componentType" : 5126,
            "count" : 824,
            "max" : [
                0.005574643611907959,
                0.3138542175292969,
                0.31385427713394165
            ],
            "min" : [
                -0.20300650596618652,
                -0.31385430693626404,
                -0.31385424733161926
            ],
            "type" : "VEC3"
        },
        {
            "bufferView" : 21,
            "componentType" : 5126,
            "count" : 824,
            "type" : "VEC3"
        },
        {
            "bufferView" : 22,
            "componentType" : 5126,
            "count" : 824,
            "type" : "VEC2"
        },
        {
            "bufferView" : 23,
            "componentType" : 5123,
            "count" : 1200,
            "type" : "SCALAR"
        },
        {
            "bufferView" : 24,
            "componentType" : 5126,
            "count" : 1028,
            "max" : [
                0.7636280655860901,
                1.2758208513259888,
                0.6617040634155273
            ],
            "min" : [
                -0.7636280655860901,
                0.2785170078277588,
                -1.311888575553894
            ],
            "type" : "VEC3"
        },
        {
            "bufferView" : 25,
            "componentType" : 5126,
            "count" : 1028,
            "type" : "VEC3"
        },
        {
            "bufferView" : 26,
            "componentType" : 5126,
            "count" : 1028,
            "type" : "VEC2"
        },
        {
            "bufferView" : 27,
            "componentType" : 5123,
            "count" : 1890,
            "type" : "SCALAR"
        },
        {
            "bufferView" : 30,
            "componentType" : 5126,
            "count" : 4392,
            "max" : [
                0.966627836227417,
                1.317612648010254,
                2.2047512531280518
            ],
            "min" : [
                -0.966627836227417,
                0.14671389758586884,
                -1.875124454498291
            ],
            "type" : "VEC3"
        },
        {
            "bufferView" : 31,
            "componentType" : 5126,
            "count" : 4392,
            "type" : "VEC3"
        },
        {
            "bufferView" : 32,
            "componentType" : 5126,
            "count" : 4392,
            "type" : "VEC2"
        },
        {
            "bufferView" : 33,
            "componentType" : 5123,
            "count" : 7800,
            "type" : "SCALAR"
        }
    ],
    "bufferViews" : [
        {
            "buffer" : 0,
            "byteLength" : 3120,
            "byteOffset" : 0
        },
        {
            "buffer" : 0,
            "byteLength" : 3120,
            "byteOffset" : 3120
        },
        {
            "buffer" : 0,
            "byteLength" : 2080,
            "byteOffset" : 6240
        },
        {
            "buffer" : 0,
            "byteLength" : 1272,
            "byteOffset" : 8320
        },
        {
            "buffer" : 0,
            "byteLength" : 90,
            "byteOffset" : 9592
        },
        {
            "buffer" : 0,
            "byteLength" : 90,
            "byteOffset" : 9684
        },
        {
            "buffer" : 0,
            "byteLength" : 9936,
            "byteOffset" : 9776
        },
        {
            "buffer" : 0,
            "byteLength" : 9936,
            "byteOffset" : 19712
        },
        {
            "buffer" : 0,
            "byteLength" : 6624,
            "byteOffset" : 29648
        },
        {
            "buffer" : 0,
            "byteLength" : 2400,
            "byteOffset" : 36272
        },
        {
            "buffer" : 0,
            "byteLength" : 90,
            "byteOffset" : 38672
        },
        {
            "buffer" : 0,
            "byteLength" : 90,
            "byteOffset" : 38764
        },
        {
            "buffer" : 0,
            "byteLength" : 9912,
            "byteOffset" : 38856
        },
        {
            "buffer" : 0,
            "byteLength" : 9912,
            "byteOffset" : 48768
        },
        {
            "buffer" : 0,
            "byteLength" : 6608,
            "byteOffset" : 58680
        },
        {
            "buffer" : 0,
            "byteLength" : 2400,
            "byteOffset" : 65288
        },
        {
            "buffer" : 0,
            "byteLength" : 9804,
            "byteOffset" : 67688
        },
        {
            "buffer" : 0,
            "byteLength" : 9804,
            "byteOffset" : 77492
        },
        {
            "buffer" : 0,
            "byteLength" : 6536,
            "byteOffset" : 87296
        },
        {
            "buffer" : 0,
            "byteLength" : 2400,
            "byteOffset" : 93832
        },
        {
            "buffer" : 0,
            "byteLength" : 9888,
            "byteOffset" : 96232
        },
        {
            "buffer" : 0,
            "byteLength" : 9888,
            "byteOffset" : 106120
        },
        {
            "buffer" : 0,
            "byteLength" : 6592,
            "byteOffset" : 116008
        },
        {
            "buffer" : 0,
            "byteLength" : 2400,
            "byteOffset" : 122600
        },
        {
            "buffer" : 0,
            "byteLength" : 12336,
            "byteOffset" : 125000
        },
        {
            "buffer" : 0,
            "byteLength" : 12336,
            "byteOffset" : 137336
        },
        {
            "buffer" : 0,
            "byteLength" : 8224,
            "byteOffset" : 149672
        },
        {
            "buffer" : 0,
            "byteLength" : 3780,
            "byteOffset" : 157896
        },
        {
            "buffer" : 0,
            "byteLength" : 90,
            "byteOffset" : 161676
        },
        {
            "buffer" : 0,
            "byteLength" : 90,
            "byteOffset" : 161768
        },
        {
            "buffer" : 0,
            "byteLength" : 52704,
            "byteOffset" : 161860
        },
        {
            "buffer" : 0,
            "byteLength" : 52704,
            "byteOffset" : 214564
        },
        {
            "buffer" : 0,
            "byteLength" : 35136,
            "byteOffset" : 267268
        },
        {
            "buffer" : 0,
            "byteLength" : 15600,
            "byteOffset" : 302404
        },
        {
            "buffer" : 0,
            "byteLength" : 90,
            "byteOffset" : 318004
        },
        {
            "buffer" : 0,
            "byteLength" : 90,
            "byteOffset" : 318096
        }
    ],
    "samplers" : [
        {
            "magFilter" : 9729,
            "minFilter" : 9987
        }
    ],
    "buffers" : [
        {
            "byteLength" : 318188,
            "uri" : "data:application/octet-stream;base64,"
        }
    ]
}
