{
    "asset" : {
        "generator" : "Khronos glTF Blender I/O v3.4.50",
        "version" : "2.0"
    },
    "scene" : 0,
    "scenes" : [
        {
            "name" : "Scene",
            "nodes" : [
                0,
                1
            ]
        }
    ],
    "nodes" : [
        {
            "mesh" : 0,
            "name" : "Track-col",
            "scale" : [
                0.919743001461029,
                0.5964288115501404,
                4.3437371253967285
            ]
        },
        {
            "name" : "BezierCurve",
            "scale" : [
                31.642484664916992,
                31.642484664916992,
                31.642484664916992
            ]
        }
    ],
    "materials" : [
        {
            "doubleSided" : true,
            "name" : "MyMaterial",
            "pbrMetallicRoughness" : {
                "baseColorTexture" : {
                    "index" : 0
                },
                "metallicFactor" : 0,
                "roughnessFactor" : 0.5
            }
        }
    ],
    "meshes" : [
        {
            "name" : "Cube",
            "primitives" : [
                {
                    "attributes" : {
                        "POSITION" : 0,
                        "TEXCOORD_0" : 1,
                        "NORMAL" : 2
                    },
                    "indices" : 3,
                    "material" : 0
                }
            ]
        }
    ],
    "textures" : [
        {
            "sampler" : 0,
            "source" : 0
        }
    ],
    "images" : [
        {
            "bufferView" : 4,
            "mimeType" : "image/png",
            "name" : "Track-color"
        }
    ],
    "accessors" : [
        {
            "bufferView" : 0,
            "componentType" : 5126,
            "count" : 20320,
            "max" : [
                91.86486053466797,
                2.8043017387390137,
                10.68415641784668
            ],
            "min" : [
                -102.63785552978516,
                -1.000001311302185,
                -10.244551658630371
            ],
            "type" : "VEC3"
        },
        {
            "bufferView" : 1,
            "componentType" : 5126,
            "count" : 20320,
            "type" : "VEC2"
        },
        {
            "bufferView" : 2,
            "componentType" : 5126,
            "count" : 20320,
            "type" : "VEC3"
        },
        {
            "bufferView" : 3,
            "componentType" : 5123,
            "count" : 30492,
            "type" : "SCALAR"
        }
    ],
    "bufferViews" : [
        {
            "buffer" : 0,
            "byteLength" : 243840,
            "byteOffset" : 0,
            "target" : 34962
        },
        {
            "buffer" : 0,
            "byteLength" : 162560,
            "byteOffset" : 243840,
            "target" : 34962
        },
        {
            "buffer" : 0,
            "byteLength" : 243840,
            "byteOffset" : 406400,
            "target" : 34962
        },
        {
            "buffer" : 0,
            "byteLength" : 60984,
            "byteOffset" : 650240,
            "target" : 34963
        },
        {
            "buffer" : 0,
            "byteLength" : 7538,
            "byteOffset" : 711224
        }
    ],
    "samplers" : [
        {
            "magFilter" : 9729,
            "minFilter" : 9987
        }
    ],
    "buffers" : [
        {
            "byteLength" : 718764,
            "uri" : "data:application/octet-stream;base64,"
        }
    ]
}
